ply
format ascii 1.0
comment Created with the Wolfram Language : www.wolfram.com
element vertex 20
property float x
property float y
property float z
element face 12
property list uint uint vertex_index
end_header
-1.11352 0.809017 -0.262866
-0.688191 0.5 -1.11352
-0.688191 -0.5 -1.11352
-1.11352 -0.809017 -0.262866
-1.37638 0 0.262866
1.37638 0 -0.262866
1.11352 0.809017 0.262866
0.688191 0.5 1.11352
0.688191 -0.5 1.11352
1.11352 -0.809017 0.262866
-0.262866 -0.809017 1.11352
-0.425325 -1.30902 0.262866
0.425325 -1.30902 -0.262866
-0.262866 0.809017 1.11352
-0.850651 0 1.11352
0.425325 1.30902 -0.262866
-0.425325 1.30902 0.262866
0.850651 0 -1.11352
0.262866 0.809017 -1.11352
0.262866 -0.809017 -1.11352
5 0 1 2 3 4
5 5 6 7 8 9
5 9 8 10 11 12
5 8 7 13 14 10
5 7 6 15 16 13
5 6 5 17 18 15
5 5 9 12 19 17
5 16 15 18 1 0
5 18 17 19 2 1
5 19 12 11 3 2
5 11 10 14 4 3
5 14 13 16 0 4
