ply
format ascii 1.0
comment Created with the Wolfram Language : www.wolfram.com
element vertex 12
property float x
property float y
property float z
element face 20
property list uint uint vertex_index
end_header
0 0 0.951057
0.262866 0.809017 0.425325
-0.688191 0.5 0.425325
-0.688191 -0.5 0.425325
0.262866 -0.809017 0.425325
0.850651 0 0.425325
0.688191 -0.5 -0.425325
-0.262866 -0.809017 -0.425325
0 0 -0.951057
0.688191 0.5 -0.425325
-0.262866 0.809017 -0.425325
-0.850651 0 -0.425325
3 0 1 2
3 0 2 3
3 0 3 4
3 0 4 5
3 0 5 1
3 6 7 8
3 9 6 8
3 10 9 8
3 11 10 8
3 7 11 8
3 1 10 2
3 2 11 3
3 3 7 4
3 4 6 5
3 5 9 1
3 6 4 7
3 9 5 6
3 10 1 9
3 11 2 10
3 7 3 11
