ply
format ascii 1.0
element vertex 10
property float x
property float y
property float z
element face 8
property list uint uint vertex_index
end_header
1.0 0.0 0.0
0.21213203435596426 0.21213203435596423 0.0
6.123233995736766e-17 1.0 0.0
-0.21213203435596423 0.21213203435596426 0.0
-1.0 1.2246467991473532e-16 0.0
-0.2121320343559643 -0.21213203435596423 0.0
-1.8369701987210297e-16 -1.0 0.0
0.2121320343559642 -0.2121320343559643 0.0
0 0 1
0 0 -1
4 1 2 3 8 
4 3 4 5 8 
4 5 6 7 8 
4 7 0 1 8
4 1 0 7 9 
4 3 2 1 9 
4 5 4 3 9 
4 7 6 5 9 

